<svg id="Layer_1" data-name="Layer 1" xmlns="http://www.w3.org/2000/svg"  width="35" height="43"  viewBox="0 0 200 201"><defs><style>.cls-1{fill:#fff;}.cls-2{fill:navy;}.cls-3{fill:none;}</style></defs><title>purchase</title><path class="cls-1" d="M407,511H207V310H407ZM238.6,335c10.27,41.89,20.37,83.1,30.46,124.31,2,8.14,3.71,9.56,11.94,9.56q39.5,0,79,0a19.28,19.28,0,0,0,5.89-.65,6.84,6.84,0,0,0,5-7.71,6.94,6.94,0,0,0-6.36-6.65,35.94,35.94,0,0,0-5-.18q-35,0-70,0h-6.1l-4.42-18h6.32q43.5,0,87,0c7.8,0,9.53-1.37,11.46-8.91.25-1,.44-1.95.69-2.92q8.4-33.13,16.84-66.27c1-3.74.23-7.12-3.12-8.51a11.31,11.31,0,0,0-8.29.23c-1.79.85-3,3.86-3.61,6.14-3,10.92-5.6,21.92-8.41,32.88-2.69,10.56-5.45,21.11-8.1,31.39H275.35c-.55-2.24-1-4.18-1.49-6.12q-10.49-42.66-21-85.31c-1.7-6.9-3.57-8.36-10.78-8.37-6.83,0-13.67,0-20.5,0-6.13,0-9.67,2.9-9.57,7.66s3.61,7.42,9.84,7.45C227.34,335,232.82,335,238.6,335Zm124.69,28.42a40.58,40.58,0,0,0-81.16-.3,40.58,40.58,0,1,0,81.16.3ZM365,488a12.43,12.43,0,1,0-12.67,12A12.34,12.34,0,0,0,365,488Zm-72.94,12a12.31,12.31,0,0,0,12.55-12.16,12.57,12.57,0,0,0-12.27-12.57,12.34,12.34,0,0,0-12.44,12.28A12.13,12.13,0,0,0,292.05,500.09Z" transform="translate(-207 -310)"/><path class="cls-2" d="M238.6,335c-5.78,0-11.26,0-16.73,0-6.23,0-9.74-2.71-9.84-7.45s3.44-7.62,9.57-7.66c6.83,0,13.67,0,20.5,0,7.21,0,9.08,1.47,10.78,8.37q10.5,42.66,21,85.31c.47,1.94.94,3.88,1.49,6.12h94.46c2.65-10.28,5.41-20.83,8.1-31.39,2.81-11,5.45-22,8.41-32.88.62-2.28,1.82-5.29,3.61-6.14a11.31,11.31,0,0,1,8.29-.23c3.35,1.39,4.08,4.77,3.12,8.51q-8.5,33.12-16.84,66.27c-.25,1-.44,1.95-.69,2.92-1.93,7.54-3.66,8.91-11.46,8.91q-43.5,0-87,0H279l4.42,18h6.1q35,0,70,0a35.94,35.94,0,0,1,5,.18,6.94,6.94,0,0,1,6.36,6.65,6.84,6.84,0,0,1-5,7.71,19.28,19.28,0,0,1-5.89.65q-39.5.06-79,0c-8.23,0-9.95-1.42-11.94-9.56C259,418.1,248.87,376.89,238.6,335Z" transform="translate(-207 -310)"/><path class="cls-2" d="M363.29,363.42a40.58,40.58,0,1,1-40.61-40.53A40.51,40.51,0,0,1,363.29,363.42Zm-44.47,2.9c-2.1-2.48-3.83-4.49-5.53-6.53-2.48-3-5.49-4-8.66-1.43s-3.1,6-.52,9.21c3,3.74,6.12,7.45,9.29,11.07,3.75,4.29,7,4.32,10.75,0,5.52-6.42,10.92-12.95,16.32-19.47,3.33-4,3.5-7.68.33-9.95-3.83-2.73-6.79-1-9.41,2.18C327.39,356.23,323.29,361,318.82,366.32Z" transform="translate(-207 -310)"/><path class="cls-2" d="M365,488a12.43,12.43,0,0,1-24.85-.52A12.43,12.43,0,0,1,365,488Z" transform="translate(-207 -310)"/><path class="cls-2" d="M292.05,500.09a12.13,12.13,0,0,1-12.16-12.45,12.34,12.34,0,0,1,12.44-12.28,12.57,12.57,0,0,1,12.27,12.57A12.31,12.31,0,0,1,292.05,500.09Z" transform="translate(-207 -310)"/><path class="cls-3" d="M318.82,366.32c4.47-5.31,8.57-10.09,12.57-14.95,2.62-3.17,5.58-4.91,9.41-2.18,3.17,2.27,3,5.95-.33,9.95-5.4,6.52-10.8,13.05-16.32,19.47-3.74,4.35-7,4.32-10.75,0-3.17-3.62-6.25-7.33-9.29-11.07-2.58-3.18-2.79-6.52.52-9.21s6.18-1.54,8.66,1.43C315,361.83,316.72,363.84,318.82,366.32Z" transform="translate(-207 -310)"/></svg>