<svg id="Layer_1" data-name="Layer 1" xmlns="http://www.w3.org/2000/svg" width="35" height="43" viewBox="0 0 511.82 511.91"><defs><style>.cls-1{fill:#fff;}.cls-2{fill:navy;}</style></defs><title>Top_Up</title><path class="cls-1" d="M562.85,653H51V141.09H562.85ZM136.28,332.73c0-6.48,0-12.45,0-18.43,0-15.45,8.65-24,24.23-24q82.74,0,165.48-.07a31.37,31.37,0,0,0,8.39-.86,21.09,21.09,0,0,0,15.19-22.48c-1.38-11.25-9.75-19-21.34-19.06-57.67-.1-115.33-.41-173,.14-34.08.32-61.26,28.59-61.41,63q-.39,85.23,0,170.49c.16,37.53,27.81,64.75,65.34,64.77q148,.07,296,0c37.32,0,65-27.75,65.09-65.06.07-22.67,0-45.33,0-68q0-50.25,0-100.49c0-10.63-5.89-18.81-15.31-21.53a21.13,21.13,0,0,0-27.11,19.46c-.32,7.27-.06,14.57-.06,22.12Zm320-63.75c7.79,0,15.08.2,22.35,0a21.19,21.19,0,0,0,19.56-27c-2.72-9.54-10.65-15.45-21.28-15.64-6.75-.12-13.5,0-20.62,0,0-3,0-5.11,0-7.25,0-5.16.14-10.34-.11-15.49A20.81,20.81,0,0,0,435,183.77c-11.39,0-20.67,8.43-21.14,19.66-.31,7.43-.06,14.89-.06,22.82-7.52,0-14.32-.15-21.12,0-12.78.35-22,9.73-21.7,21.92.26,11.88,9.71,20.7,22.31,20.78,6.62,0,13.24,0,20.44,0,0,7.1-.06,13.72,0,20.33.12,12.9,9.08,22.33,21.19,22.39s21.15-9.46,21.27-22.29C456.3,282.81,456.24,276.18,456.24,269Z" transform="translate(-51.03 -141.09)"/><path class="cls-2" d="M136.28,332.73H477.79c0-7.55-.26-14.85.06-22.12A21.13,21.13,0,0,1,505,291.15c9.42,2.72,15.3,10.9,15.31,21.53q0,50.24,0,100.49c0,22.67,0,45.33,0,68-.1,37.31-27.77,65-65.09,65.06q-148,.07-296,0c-37.53,0-65.18-27.24-65.34-64.77q-.36-85.24,0-170.49c.15-34.43,27.33-62.7,61.41-63,57.66-.55,115.32-.24,173-.14,11.59,0,20,7.81,21.34,19.06a21.09,21.09,0,0,1-15.19,22.48,31.37,31.37,0,0,1-8.39.86q-82.74.09-165.48.07c-15.58,0-24.25,8.57-24.23,24C136.29,320.28,136.28,326.25,136.28,332.73Zm.51,43.36a9.21,9.21,0,0,0-.47,1.8c0,35-.22,70,.06,104.94.1,11.76,9,20.14,20.76,20.87,2.33.15,4.67.05,7,.05q144.17,0,288.33,0c17.06,0,25.32-8.32,25.29-25.52q-.08-44,0-87.95v-14.2Z" transform="translate(-51.03 -141.09)"/><path class="cls-2" d="M456.24,269c0,7.2.06,13.83,0,20.45-.12,12.83-9.24,22.36-21.27,22.29s-21.07-9.49-21.19-22.39c-.07-6.61,0-13.23,0-20.33-7.2,0-13.82,0-20.44,0-12.6-.08-22.05-8.9-22.31-20.78-.27-12.19,8.92-21.57,21.7-21.92,6.8-.19,13.6,0,21.12,0,0-7.93-.25-15.39.06-22.82.47-11.23,9.75-19.67,21.14-19.66a20.81,20.81,0,0,1,21.11,19.74c.25,5.15.09,10.33.11,15.49,0,2.14,0,4.28,0,7.25,7.12,0,13.87-.1,20.62,0,10.63.19,18.56,6.1,21.28,15.64a21.19,21.19,0,0,1-19.56,27C471.32,269.18,464,269,456.24,269Z" transform="translate(-51.03 -141.09)"/><path class="cls-1" d="M136.79,376.09h341v14.2q0,44,0,87.95c0,17.2-8.23,25.53-25.29,25.52q-144.17,0-288.33,0c-2.33,0-4.67.1-7-.05-11.76-.73-20.66-9.11-20.76-20.87-.28-35-.09-70-.06-104.94A9.21,9.21,0,0,1,136.79,376.09Z" transform="translate(-51.03 -141.09)"/></svg>