<svg id="Layer_1" data-name="Layer 1" xmlns="http://www.w3.org/2000/svg" width="35" height="43" viewBox="0 0 511.82 511.91"><defs><style>.cls-1{fill:#fff;}.cls-2{fill:navy;}</style></defs><title>verify</title><path class="cls-1" d="M51,653V141.09H562.85V653Zm64-333.14c0,10.5-.24,21,0,31.49.55,19.47,0,39.09,2.41,58.35,5.74,46.85,23.31,89.35,51.53,127.2,34.2,45.86,78,78.27,133.7,93.51a15.8,15.8,0,0,0,7.75.26c20.25-5.23,39.67-12.81,57.37-23.93,83.62-52.53,127-128.82,130.86-227,1.69-42.59.28-85.3.4-128,0-3.16-1-4.61-3.87-5.88Q403,205.08,310.87,164.19a10.85,10.85,0,0,0-7.85,0q-92.22,40.71-184.32,81.7c-2.91,1.29-3.79,2.86-3.77,6C115.06,274.54,115,297.2,115,319.86Z" transform="translate(-51.03 -141.09)"/><path class="cls-2" d="M115,319.86c0-22.66.06-45.32-.07-68,0-3.1.86-4.67,3.77-6q92.19-40.8,184.32-81.7a10.85,10.85,0,0,1,7.85,0q92.22,40.71,184.33,81.7c2.85,1.27,3.88,2.72,3.87,5.88-.12,42.66,1.29,85.37-.4,128-3.89,98.19-47.24,174.48-130.86,227-17.7,11.12-37.12,18.7-57.37,23.93a15.8,15.8,0,0,1-7.75-.26C247,615.17,203.19,582.76,169,536.9c-28.22-37.85-45.79-80.35-51.53-127.2-2.36-19.26-1.86-38.88-2.41-58.35C114.76,340.86,115,330.36,115,319.86ZM264.05,502.5,433.61,332.89,403.8,303.11,263.7,443.26l-54-54.17-29.42,29.56Z" transform="translate(-51.03 -141.09)"/><path class="cls-1" d="M264.05,502.5l-83.82-83.85,29.42-29.56,54,54.17L403.8,303.11l29.81,29.78Z" transform="translate(-51.03 -141.09)"/></svg>